<?xml version="1.0" encoding="iso-8859-1"?>
<!-- Uploaded to: SVG Repo, www.svgrepo.com, Generator: SVG Repo Mixer Tools -->
<svg fill="#000000" height="800px" width="800px" version="1.1" id="Layer_1" xmlns="http://www.w3.org/2000/svg" xmlns:xlink="http://www.w3.org/1999/xlink" 
	 viewBox="0 0 512.027 512.027" xml:space="preserve">
<g>
	<g>
		<path d="M501.36,170.628H234.693v-128c0-5.867-4.8-10.667-10.773-10.56c-2.773,0-5.44,1.067-7.36,3.093L3.12,248.068
			c-4.16,4.16-4.16,10.88,0,15.04l213.44,213.76c2.027,2.027,4.693,3.093,7.467,3.093c1.387,0,2.773-0.32,4.053-0.853
			c3.947-1.6,6.613-5.547,6.613-9.813v-128H501.36c5.867,0,10.667-4.8,10.667-10.667V181.294
			C512.027,175.428,507.227,170.628,501.36,170.628z M490.693,319.961H224.027c-5.867,0-10.667,4.8-10.667,10.667v112.853
			L25.627,255.641L213.36,68.334v112.96c0,5.867,4.8,10.667,10.667,10.667h266.667V319.961z"/>
	</g>
</g>
</svg>