<?xml version="1.0" encoding="iso-8859-1"?>
<!-- Uploaded to: SVG Repo, www.svgrepo.com, Generator: SVG Repo Mixer Tools -->
<!DOCTYPE svg PUBLIC "-//W3C//DTD SVG 1.1//EN" "http://www.w3.org/Graphics/SVG/1.1/DTD/svg11.dtd">
<svg fill="#000000" version="1.1" id="Capa_1" xmlns="http://www.w3.org/2000/svg" xmlns:xlink="http://www.w3.org/1999/xlink" 
	 width="800px" height="800px" viewBox="0 0 469.805 469.805"
	 xml:space="preserve">
<g>
	<g>
		<path d="M178.047,154.979v77.816c0,6.593,5.346,11.938,11.939,11.938h89.832c6.594,0,11.938-5.347,11.938-11.938v-77.816
			c0-6.594-5.346-11.938-11.938-11.938h-89.832C183.393,143.042,178.047,148.385,178.047,154.979z M267.88,220.857h-21.038v-53.939
			h21.038V220.857z M201.924,166.918h21.039v53.939h-21.039V166.918z"/>
		<path d="M465.368,201.708L254.245,31.166l-11.717-9.729c-4.42-3.673-10.833-3.673-15.25,0l-116.106,96.418L4.389,204.972
			c-5.105,4.168-5.869,11.688-1.701,16.797c2.361,2.895,5.793,4.393,9.256,4.393c2.652,0,5.322-0.88,7.545-2.688L55.6,194.012
			v245.174c0,6.593,5.346,11.938,11.939,11.938h92.18h35.391h79.584h35.391h92.181c6.594,0,11.938-5.346,11.938-11.938V191.072
			l36.16,29.208c2.209,1.784,4.861,2.652,7.496,2.652c3.479,0,6.938-1.516,9.291-4.437
			C471.296,213.366,470.499,205.85,465.368,201.708z M262.755,427.248h-55.706V299.029h55.706V427.248z M390.327,175.21v252.038
			h-80.242h-23.452V287.092c0-6.594-5.345-11.938-11.938-11.938H195.11c-6.592,0-11.938,5.347-11.938,11.938v140.156h-23.453h-80.24
			V175.21l46.412-38.544c0,0,107.808-88.835,109.367-90.23L390.327,175.21z"/>
	</g>
</g>
</svg>