<?xml version="1.0" encoding="utf-8"?><!-- Uploaded to: SVG Repo, www.svgrepo.com, Generator: SVG Repo Mixer Tools -->
<svg width="800px" height="800px" viewBox="0 0 48 48" xmlns="http://www.w3.org/2000/svg"><title>ONE-xicons</title><path d="M24,48A24,24,0,1,1,48,24,24,24,0,0,1,24,48ZM24,1A23,23,0,1,0,47,24,23,23,0,0,0,24,1Z"/><path d="M29.5,32.5h-11a0.5,0.5,0,0,1,0-1h11A0.5,0.5,0,0,1,29.5,32.5Z"/><path d="M24,32a0.5,0.5,0,0,1-.5-0.5V23a0.5,0.5,0,0,0-.5-0.5H20.5a0.5,0.5,0,0,1,0-1H23A1.5,1.5,0,0,1,24.5,23v8.5A0.5,0.5,0,0,1,24,32Z"/><circle cx="23" cy="17" r="1.5"/><rect width="48" height="48" fill="none"/></svg>