<?xml version="1.0" ?>
<!-- Uploaded to: SVG Repo, www.svgrepo.com, Generator: SVG Repo Mixer Tools -->
<svg width="800px" height="800px" viewBox="0 0 512 512" id="svg2793" style="fill-rule:evenodd;clip-rule:evenodd;stroke-linejoin:round;stroke-miterlimit:2;" version="1.1" xml:space="preserve" xmlns="http://www.w3.org/2000/svg" xmlns:cc="http://creativecommons.org/ns#" xmlns:dc="http://purl.org/dc/elements/1.1/" xmlns:rdf="http://www.w3.org/1999/02/22-rdf-syntax-ns#" xmlns:serif="http://www.serif.com/" xmlns:svg="http://www.w3.org/2000/svg">
<defs id="defs2797"/>
<g id="_34-Update" style="display:inline" transform="translate(-3072,-6144)">
<g id="g2057" transform="translate(3328,6333.5)">
<path d="m 0,244.188 c -8.284,0 -15,6.716 -15,15 v 17.617 L -78.355,227.467 -15,178.13 v 9.337 c 0,8.284 6.716,15 15,15 74.467,0 135.05,-60.583 135.05,-135.05 0,-30.345 -9.964,-59.18 -28.344,-82.771 l 32.9,-25.614 C 163.66,-10.05 176.77,27.94 176.77,67.417 176.77,164.889 97.471,244.188 0,244.188 M 152.855,-71.767 c -5.276,-5.791 -14.12,-6.543 -20.3,-1.732 l -56.85,44.26 c -3.392,2.642 -5.488,6.612 -5.756,10.903 -0.267,4.291 1.319,8.49 4.357,11.533 19.826,19.852 30.744,46.212 30.744,74.22 0,52.834 -39.204,96.683 -90.05,103.983 v -23.962 c 0,-5.73 -3.265,-10.96 -8.414,-13.477 -5.147,-2.515 -11.28,-1.878 -15.802,1.642 l -102.769,80.029 c -3.65,2.842 -5.785,7.209 -5.785,11.835 0,4.626 2.134,8.993 5.785,11.835 l 102.769,80.031 c 2.686,2.09 5.94,3.165 9.218,3.165 2.241,0 4.494,-0.502 6.584,-1.524 C 11.735,318.459 15,313.228 15,307.498 V 273.65 C 122.036,265.938 206.77,176.386 206.77,67.417 206.77,15.81 187.623,-33.62 152.855,-71.767" id="path2055" style="fill-rule:nonzero"/>
</g>
<g id="g2061" transform="translate(3187.01,6178.82)">
<path d="m 0,328.698 c -23.164,-30.594 -35.784,-67.941 -35.784,-106.594 0,-97.47 79.299,-176.769 176.769,-176.769 8.285,0 15,-6.716 15,-15 v -19.46 l 63.355,49.33 -63.355,49.337 v -7.488 c 0,-8.284 -6.715,-15 -15,-15 -74.466,0 -135.049,60.583 -135.049,135.05 0,29.492 9.479,57.696 26.971,80.967 z m 69.428,-22.329 c 0.303,-4.238 -1.204,-8.407 -4.15,-11.471 -18.922,-19.679 -29.342,-45.53 -29.342,-72.794 0,-52.834 39.204,-96.682 90.049,-103.982 v 22.112 c 0,5.731 3.265,10.96 8.414,13.477 5.149,2.515 11.283,1.878 15.802,-1.642 l 102.77,-80.03 c 3.65,-2.843 5.784,-7.21 5.784,-11.835 0,-4.626 -2.135,-8.993 -5.784,-11.835 l -102.77,-80.02 c -4.523,-3.521 -10.653,-4.156 -15.803,-1.641 -5.148,2.516 -8.413,7.746 -8.413,13.476 v 35.689 c -107.036,7.712 -191.769,97.263 -191.769,206.231 0,50.707 18.564,99.493 52.274,137.372 2.952,3.319 7.068,5.029 11.212,5.029 3.231,0 6.479,-1.039 9.209,-3.165 l 56.771,-44.21 c 3.353,-2.612 5.441,-6.523 5.746,-10.761" id="path2059" style="fill-rule:nonzero"/>
</g>
</g>
</svg>