<?xml version="1.0" encoding="utf-8"?><!-- Uploaded to: SVG Repo, www.svgrepo.com, Generator: SVG Repo Mixer Tools -->
<svg width="800px" height="800px" viewBox="0 0 24 24" fill="none" xmlns="http://www.w3.org/2000/svg">
<path fill-rule="evenodd" clip-rule="evenodd" d="M5 6C5.55228 6 6 5.55228 6 5C6 4.44772 5.55228 4 5 4C4.44772 4 4 4.44772 4 5C4 5.55228 4.44772 6 5 6ZM18 13C18 12.4477 17.5523 12 17 12C16.4477 12 16 12.4477 16 13V16H13C12.4477 16 12 16.4477 12 17C12 17.5523 12.4477 18 13 18H16V21C16 21.5523 16.4477 22 17 22C17.5523 22 18 21.5523 18 21V18H21C21.5523 18 22 17.5523 22 17C22 16.4477 21.5523 16 21 16H18V13ZM10 5C10 5.55228 9.55228 6 9 6C8.44771 6 8 5.55228 8 5C8 4.44772 8.44771 4 9 4C9.55228 4 10 4.44772 10 5ZM13 6C13.5523 6 14 5.55228 14 5C14 4.44772 13.5523 4 13 4C12.4477 4 12 4.44772 12 5C12 5.55228 12.4477 6 13 6ZM18 5C18 5.55228 17.5523 6 17 6C16.4477 6 16 5.55228 16 5C16 4.44772 16.4477 4 17 4C17.5523 4 18 4.44772 18 5ZM17 10C17.5523 10 18 9.55228 18 9C18 8.44771 17.5523 8 17 8C16.4477 8 16 8.44771 16 9C16 9.55228 16.4477 10 17 10ZM10 17C10 17.5523 9.55228 18 9 18C8.44771 18 8 17.5523 8 17C8 16.4477 8.44771 16 9 16C9.55228 16 10 16.4477 10 17ZM5 18C5.55228 18 6 17.5523 6 17C6 16.4477 5.55228 16 5 16C4.44772 16 4 16.4477 4 17C4 17.5523 4.44772 18 5 18ZM6 13C6 13.5523 5.55228 14 5 14C4.44772 14 4 13.5523 4 13C4 12.4477 4.44772 12 5 12C5.55228 12 6 12.4477 6 13ZM5 10C5.55228 10 6 9.55228 6 9C6 8.44771 5.55228 8 5 8C4.44772 8 4 8.44771 4 9C4 9.55228 4.44772 10 5 10Z" fill="#999999"/>
</svg>